<svg
   xmlns:dc="http://purl.org/dc/elements/1.1/"
   xmlns:cc="http://creativecommons.org/ns#"
   xmlns:rdf="http://www.w3.org/1999/02/22-rdf-syntax-ns#"
   xmlns:svg="http://www.w3.org/2000/svg"
   xmlns="http://www.w3.org/2000/svg"
   xmlns:sodipodi="http://sodipodi.sourceforge.net/DTD/sodipodi-0.dtd"
   xmlns:inkscape="http://www.inkscape.org/namespaces/inkscape"
   version="1.1"
   id="svg2"
   xml:space="preserve"
   viewBox="0 0 2800 2800"
   sodipodi:docname="web-gear.eps"><metadata
     id="metadata8"><rdf:RDF><cc:Work
         rdf:about=""><dc:format>image/svg+xml</dc:format><dc:type
           rdf:resource="http://purl.org/dc/dcmitype/StillImage" /></cc:Work></rdf:RDF></metadata><defs
     id="defs6" /><sodipodi:namedview
     pagecolor="#ffffff"
     bordercolor="#666666"
     borderopacity="1"
     objecttolerance="10"
     gridtolerance="10"
     guidetolerance="10"
     inkscape:pageopacity="0"
     inkscape:pageshadow="2"
     inkscape:window-width="640"
     inkscape:window-height="480"
     id="namedview4" /><g
     id="g10"
     inkscape:groupmode="layer"
     inkscape:label="ink_ext_XXXXXX"
     transform="matrix(1.3333333,0,0,-1.3333333,0,2800)"><g
       id="g12"
       transform="scale(0.1)"><path
         d="M 21000,0 H 0 V 21000 H 21000 V 0"
         style="fill:#ffffff;fill-opacity:1;fill-rule:nonzero;stroke:none"
         id="path14" /><path
         d="m 8961.54,13170.8 638.83,-638.8 c 40.72,-40.8 94.49,-61.4 148.25,-61.4 53.76,0 107.52,20.6 148.67,61.4 81.91,82.3 81.91,215 0,297.3 l -531.7,531.7 531.7,531.8 c 81.91,81.9 81.91,215 0,296.9 -81.88,81.9 -215.02,81.9 -296.92,0 l -638.83,-638.8 c -104.58,-104.6 -104.58,-275.1 0,-380.1"
         style="fill:#4d4d4d;fill-opacity:1;fill-rule:nonzero;stroke:none"
         id="path16" /><path
         d="m 11102.7,12532 c 41.2,-40.8 94.9,-61.4 148.7,-61.4 53.7,0 107.5,20.6 148.2,61.4 l 638.9,638.8 c 104.5,105 104.5,275.5 0,380.5 l -638.9,638.4 c -81.9,81.9 -215,81.9 -296.9,0 -81.9,-81.9 -81.9,-215 0,-296.9 l 531.7,-531.8 -531.7,-531.7 c -81.9,-82.3 -81.9,-215 0,-297.3"
         style="fill:#4d4d4d;fill-opacity:1;fill-rule:nonzero;stroke:none"
         id="path18" /><path
         d="m 10094.7,12465.6 c 28.1,-12.6 57.5,-18.9 86.5,-18.9 79.8,0 156.3,45.8 191.5,123.5 l 637.2,1408.2 c 47.9,105.9 0.8,230.2 -104.6,278.1 -105.8,47.9 -230.2,0.8 -278,-105 l -637.18,-1408.3 c -47.89,-105.4 -0.85,-229.7 104.58,-277.6"
         style="fill:#4d4d4d;fill-opacity:1;fill-rule:nonzero;stroke:none"
         id="path20" /><path
         d="m 10500,15401.8 c 1125.2,0 2040.8,-915.6 2040.8,-2041.2 0,-1125.2 -915.6,-2040.8 -2040.8,-2040.8 -1125.18,0 -2040.77,915.6 -2040.77,2040.8 0,1125.6 915.59,2041.2 2040.77,2041.2 z m -2538.91,-63.8 36.14,-54.6 c 177.65,-269.7 207.89,-613.6 81.48,-919.8 -126.44,-305.4 -391.03,-526.7 -707.71,-592.2 l -63,-13 c -52.09,-10.5 -89.04,-56.3 -89.04,-108.8 v -577.5 c 0,-52.5 36.95,-98.3 87.77,-108.8 l 63.43,-12.6 c 317.11,-65.5 581.71,-286.9 708.11,-591.8 126.85,-305.3 96.61,-648.9 -80.63,-918.9 l -36.12,-55.5 c -28.14,-43.2 -22.25,-102.4 13.44,-138.6 L 8385.3,10836 c 35.7,-36.1 94.93,-42 137.77,-13.9 l 54.16,35.7 c 160.04,105.5 345.68,158.8 534.24,158.8 129.8,0 260.82,-25.2 385.58,-76.9 305.75,-126.8 527.05,-391.4 592.65,-708.5 l 13,-63 c 10.1,-50.4 56.7,-88.2 108.3,-88.2 h 578 c 51.6,0 98.2,37.4 108.3,87.4 l 13,63.8 c 65.6,316.7 286.5,581.3 591.4,708.1 305.3,126.4 648.9,96.6 919.4,-80.6 l 55.8,-36.6 c 43.3,-28.5 101.3,-22.6 137.8,13.9 l 410.3,409.9 c 35.7,36.2 41.6,95.4 13.9,138.2 l -35.7,53.8 c -178.1,270.9 -208.3,614.8 -81.5,920.6 126.4,305.3 391,526.3 707.7,591.8 l 63.4,13 c 51.3,10.5 88.2,56.3 88.2,108.8 v 577.5 c 0,51.6 -35.7,97 -85.2,107.9 -1.3,0.4 -2.5,0.4 -3.8,0.9 l -63,13 c -316.7,65.5 -581.3,286.8 -707.7,592.6 -126.4,305.8 -96.2,649.7 81.9,919.8 l 35.7,54.2 c 27.7,42.8 21.8,101.6 -13.9,137.3 l -410.3,410.4 c -35.7,36.1 -94.9,42 -137.8,14.2 l -54.1,-36.1 c -270.1,-177.2 -613.7,-208.3 -919.4,-81.9 -305.4,126.4 -527.1,391 -593.1,708.1 l -13,63.5 c -10.5,51.6 -55.8,88.2 -108.3,88.2 h -578 c -51.6,0 -98.2,-37.4 -108.3,-87 l -13,-63.8 c -66,-318 -287.32,-582.6 -593.08,-708.6 -305.35,-126.8 -649.33,-96.1 -919.39,81.9 l -54.16,35.3 c -42.84,28.2 -102.07,22.3 -137.77,-13.8 l -159.6,-159.6 c -0.84,-0.9 -2.11,-2.1 -3.36,-3 l -247.38,-247.4 c -35.69,-36.1 -41.58,-94.9 -13.87,-137.7"
         style="fill:#4d4d4d;fill-opacity:1;fill-rule:nonzero;stroke:none"
         id="path22" /><path
         d="m 10012.4,7909.4 c 0,268.8 218.8,487.7 487.6,487.7 268.8,0 487.6,-218.9 487.6,-487.7 0,-269.2 -218.8,-488 -487.6,-488 -268.8,0 -487.6,218.8 -487.6,488 z m 5455.4,8174.1 h -2457 l 311.2,-310.8 c 33.2,-33.2 61.3,-70.2 84,-109.2 h 2061.8 c 456.9,0 828.6,-371.7 828.6,-828.7 V 9126.2 H 4703.59 v 5708.6 c 0,457 371.68,828.7 828.64,828.7 h 2062.2 c 22.68,39 50.84,76 84,109.2 l 310.8,310.8 h -2457 c -688.37,0 -1248.64,-560.3 -1248.64,-1248.7 v -5918.6 -0.4 -1374.3 c 0,-688.4 560.27,-1248.2 1248.64,-1248.2 H 9229.5 L 8590.27,5654 h -1163 c -115.91,0 -210,-93.6 -210,-210 0,-115.9 94.09,-210 210,-210 h 6145.43 c 115.9,0 210,94.1 210,210 0,116.4 -94.1,210 -210,210 h -1267.1 l -639.3,639.3 h 3801.5 c 688.3,0 1248.6,559.8 1248.6,1248.2 v 1374.3 0.4 5918.6 c 0,688.4 -560.3,1248.7 -1248.6,1248.7"
         style="fill:#4d4d4d;fill-opacity:1;fill-rule:nonzero;stroke:none"
         id="path24" /></g></g></svg>
